<?xml version="1.0" encoding="utf-8"?>
<!-- Generator: Adobe Illustrator 16.0.0, SVG Export Plug-In . SVG Version: 6.00 Build 0)  -->
<!DOCTYPE svg PUBLIC "-//W3C//DTD SVG 1.1//EN" "http://www.w3.org/Graphics/SVG/1.1/DTD/svg11.dtd">
<svg version="1.1" id="Layer_1" xmlns="http://www.w3.org/2000/svg" xmlns:xlink="http://www.w3.org/1999/xlink" x="0px" y="0px"
	 width="432px" height="288px" viewBox="0 0 432 288" enable-background="new 0 0 432 288" xml:space="preserve">
<g>
	<path d="M171.24,159.45c0-0.771-0.575-1.249-1.487-1.249c-0.688,0-1.249,0.21-1.768,0.547v-0.996
		c0.421-0.294,1.165-0.519,1.937-0.519c1.473,0,2.343,0.813,2.343,2.133v4.223h-1.024v-0.463c-0.239,0.253-0.884,0.575-1.614,0.575
		c-1.276,0-2.315-0.758-2.315-1.992c0-1.164,1.039-1.95,2.371-1.95c0.646,0,1.291,0.267,1.558,0.505V159.45z M171.24,161.4
		c-0.168-0.463-0.786-0.771-1.445-0.771c-0.758,0-1.488,0.337-1.488,1.08c0,0.758,0.729,1.108,1.488,1.108
		c0.659,0,1.276-0.309,1.445-0.771V161.4z M184.467,154.975v8.614h-1.108v-3.928h-4.869v3.928h-1.108v-8.614h1.108v3.689h4.869
		v-3.689H184.467z M187.066,160.656c0.042,1.445,0.954,2.133,2.09,2.133c0.702,0,1.207-0.168,1.768-0.589v0.968
		c-0.505,0.394-1.15,0.547-1.894,0.547c-1.796,0-3.002-1.221-3.002-3.185c0-1.936,1.123-3.297,2.778-3.297
		c1.684,0,2.553,1.221,2.553,3.044v0.379H187.066z M187.122,159.829h3.213c-0.042-0.912-0.505-1.698-1.515-1.698
		C187.992,158.131,187.319,158.679,187.122,159.829z M197.915,162.116l1.375-4.757h1.024l-1.838,6.229h-1.025l-1.291-4.729
		l-1.305,4.729h-1.023l-1.838-6.229h1.052l1.375,4.757l1.277-4.757h0.94L197.915,162.116z M202.52,163.589h-1.052v-9.12h1.052
		V163.589z M204.977,160.656c0.042,1.445,0.955,2.133,2.09,2.133c0.702,0,1.207-0.168,1.769-0.589v0.968
		c-0.505,0.394-1.15,0.547-1.894,0.547c-1.796,0-3.002-1.221-3.002-3.185c0-1.936,1.122-3.297,2.777-3.297
		c1.684,0,2.553,1.221,2.553,3.044v0.379H204.977z M205.033,159.829h3.213c-0.042-0.912-0.505-1.698-1.515-1.698
		C205.903,158.131,205.229,158.679,205.033,159.829z M212.375,163.589h-1.052v-5.332h-1.305v-0.897h1.305v-1.642h1.052v1.642h1.445
		v0.897h-1.445V163.589z M217.053,163.589H216v-5.332h-1.305v-0.897H216v-1.642h1.052v1.642h1.445v0.897h-1.445V163.589z
		 M224.206,160.138v3.451h-1.108v-8.614h3.186c1.738,0,2.875,0.884,2.875,2.581c0,1.685-1.137,2.582-2.875,2.582H224.206z
		 M226.269,155.942h-2.062v3.213h2.062c1.165,0,1.796-0.631,1.796-1.6C228.064,156.574,227.434,155.942,226.269,155.942z
		 M233.774,159.45c0-0.771-0.576-1.249-1.487-1.249c-0.688,0-1.249,0.21-1.769,0.547v-0.996c0.421-0.294,1.165-0.519,1.937-0.519
		c1.474,0,2.343,0.813,2.343,2.133v4.223h-1.023v-0.463c-0.239,0.253-0.885,0.575-1.614,0.575c-1.276,0-2.314-0.758-2.314-1.992
		c0-1.164,1.038-1.95,2.37-1.95c0.646,0,1.291,0.267,1.559,0.505V159.45z M233.774,161.4c-0.169-0.463-0.786-0.771-1.445-0.771
		c-0.759,0-1.487,0.337-1.487,1.08c0,0.758,0.729,1.108,1.487,1.108c0.659,0,1.276-0.309,1.445-0.771V161.4z M239.148,157.233
		c0.603,0,1.234,0.141,1.669,0.519v1.066c-0.449-0.448-0.996-0.646-1.6-0.646c-1.108,0-2.006,0.87-2.006,2.302
		c0,1.431,0.897,2.301,2.006,2.301c0.604,0,1.15-0.197,1.6-0.646v1.066c-0.435,0.379-1.066,0.519-1.669,0.519
		c-1.685,0-3.003-1.248-3.003-3.24C236.146,158.481,237.464,157.233,239.148,157.233z M247.497,163.589h-1.305l-2.877-3.087v3.087
		h-1.052v-9.12h1.052v5.515l2.765-2.624h1.361l-3.059,2.848L247.497,163.589z M251.857,159.45c0-0.771-0.576-1.249-1.487-1.249
		c-0.688,0-1.249,0.21-1.769,0.547v-0.996c0.421-0.294,1.165-0.519,1.937-0.519c1.474,0,2.343,0.813,2.343,2.133v4.223h-1.023
		v-0.463c-0.239,0.253-0.885,0.575-1.614,0.575c-1.276,0-2.314-0.758-2.314-1.992c0-1.164,1.038-1.95,2.37-1.95
		c0.646,0,1.291,0.267,1.559,0.505V159.45z M251.857,161.4c-0.169-0.463-0.786-0.771-1.445-0.771c-0.759,0-1.487,0.337-1.487,1.08
		c0,0.758,0.729,1.108,1.487,1.108c0.659,0,1.276-0.309,1.445-0.771V161.4z M257.824,158.411c-0.169-0.111-0.435-0.168-0.701-0.168
		c-0.66,0-1.235,0.436-1.445,1.165v4.181h-1.052v-6.229h1.052v0.813c0.267-0.533,0.855-0.939,1.544-0.939
		c0.266,0,0.49,0.042,0.603,0.098V158.411z M263.125,162.859c-0.309,0.449-0.982,0.855-1.754,0.855c-1.824,0-2.806-1.473-2.806-3.24
		c0-1.754,0.981-3.241,2.806-3.241c0.771,0,1.445,0.406,1.754,0.855v-3.62h1.066v9.12h-1.066V162.859z M263.125,159.212
		c-0.322-0.646-0.94-1.024-1.6-1.024c-1.192,0-1.895,0.968-1.895,2.287c0,1.318,0.702,2.287,1.895,2.287
		c0.659,0,1.277-0.379,1.6-1.024V159.212z M172.797,169v0.981h-4.392v2.723h3.985v0.982h-3.985v2.932h4.392v0.996h-5.486V169
		H172.797z M174.22,171.385h1.052v0.786c0.365-0.491,1.038-0.912,1.838-0.912c1.417,0,2.188,0.912,2.188,2.272v4.083h-1.066V173.7
		c0-0.87-0.435-1.474-1.375-1.474c-0.729,0-1.36,0.491-1.585,1.165v4.223h-1.052V171.385z M182.683,177.614h-1.052v-5.331h-1.305
		v-0.898h1.305v-1.642h1.052v1.642h1.445v0.898h-1.445V177.614z M185.845,174.682c0.042,1.445,0.954,2.133,2.09,2.133
		c0.702,0,1.207-0.168,1.768-0.589v0.968c-0.505,0.394-1.15,0.548-1.894,0.548c-1.796,0-3.002-1.221-3.002-3.186
		c0-1.936,1.123-3.297,2.778-3.297c1.684,0,2.553,1.221,2.553,3.044v0.379H185.845z M185.9,173.854h3.213
		c-0.042-0.912-0.505-1.698-1.515-1.698C186.77,172.156,186.097,172.704,185.9,173.854z M194.748,172.438
		c-0.169-0.112-0.435-0.168-0.702-0.168c-0.66,0-1.235,0.435-1.445,1.164v4.181h-1.052v-6.229h1.052v0.814
		c0.267-0.534,0.856-0.94,1.544-0.94c0.266,0,0.49,0.042,0.603,0.098V172.438z M196.996,180h-1.052v-8.615h1.052v0.729
		c0.324-0.449,0.983-0.855,1.754-0.855c1.838,0,2.807,1.516,2.807,3.241s-0.969,3.241-2.807,3.241c-0.771,0-1.43-0.407-1.754-0.856
		V180z M196.996,175.763c0.324,0.646,0.94,1.024,1.6,1.024c1.193,0,1.894-0.969,1.894-2.287c0-1.319-0.701-2.287-1.894-2.287
		c-0.659,0-1.276,0.379-1.6,1.024V175.763z M206.172,172.438c-0.168-0.112-0.435-0.168-0.701-0.168
		c-0.659,0-1.235,0.435-1.445,1.164v4.181h-1.052v-6.229h1.052v0.814c0.267-0.534,0.855-0.94,1.543-0.94
		c0.266,0,0.491,0.042,0.603,0.098V172.438z M207.888,170.179c-0.364,0-0.673-0.31-0.673-0.674c0-0.379,0.309-0.674,0.673-0.674
		c0.379,0,0.688,0.295,0.688,0.674C208.576,169.869,208.267,170.179,207.888,170.179z M208.421,177.614h-1.052v-6.229h1.052V177.614
		z M209.924,176.001c0.576,0.533,1.291,0.842,2.049,0.842c0.688,0,1.291-0.252,1.291-0.87c0-0.463-0.351-0.716-0.898-0.897
		l-0.855-0.295c-0.94-0.309-1.571-0.758-1.571-1.768c0-1.095,0.967-1.754,2.202-1.754c0.702,0,1.347,0.196,1.852,0.547v1.095
		c-0.52-0.435-1.094-0.744-1.852-0.744c-0.645,0-1.179,0.281-1.179,0.814c0,0.505,0.337,0.673,0.927,0.884l0.954,0.322
		c0.94,0.323,1.459,0.87,1.459,1.755c0,1.15-1.024,1.81-2.329,1.81c-0.813,0-1.585-0.253-2.049-0.618V176.001z M216.369,174.682
		c0.042,1.445,0.954,2.133,2.09,2.133c0.702,0,1.206-0.168,1.768-0.589v0.968c-0.505,0.394-1.15,0.548-1.894,0.548
		c-1.796,0-3.003-1.221-3.003-3.186c0-1.936,1.123-3.297,2.778-3.297c1.684,0,2.553,1.221,2.553,3.044v0.379H216.369z
		 M216.424,173.854h3.213c-0.042-0.912-0.506-1.698-1.516-1.698C217.294,172.156,216.621,172.704,216.424,173.854z M227.884,171.259
		c0.604,0,1.235,0.141,1.67,0.519v1.067c-0.449-0.449-0.996-0.646-1.6-0.646c-1.108,0-2.007,0.869-2.007,2.301
		s0.898,2.301,2.007,2.301c0.604,0,1.15-0.196,1.6-0.646v1.066c-0.435,0.379-1.066,0.52-1.67,0.52c-1.683,0-3.003-1.249-3.003-3.241
		C224.881,172.507,226.201,171.259,227.884,171.259z M233.338,177.741c-1.711,0-2.861-1.333-2.861-3.241s1.15-3.241,2.861-3.241
		c1.698,0,2.862,1.333,2.862,3.241S235.036,177.741,233.338,177.741z M233.338,172.185c-1.122,0-1.796,0.954-1.796,2.315
		s0.674,2.314,1.796,2.314s1.797-0.953,1.797-2.314S234.46,172.185,233.338,172.185z M243.932,171.259
		c1.263,0,1.965,0.884,1.965,2.231v4.124h-1.066v-3.956c0-0.87-0.379-1.445-1.179-1.445c-0.632,0-1.179,0.435-1.376,1.108v4.293
		h-1.052v-3.956c0-0.87-0.378-1.445-1.178-1.445c-0.632,0-1.18,0.435-1.376,1.108v4.293h-1.052v-6.229h1.052v0.729
		c0.309-0.49,0.912-0.855,1.685-0.855c0.785,0,1.389,0.406,1.684,0.996C242.431,171.693,243.062,171.259,243.932,171.259z
		 M248.7,180h-1.053v-8.615h1.053v0.729c0.323-0.449,0.982-0.855,1.754-0.855c1.838,0,2.807,1.516,2.807,3.241
		s-0.969,3.241-2.807,3.241c-0.771,0-1.431-0.407-1.754-0.856V180z M248.7,175.763c0.323,0.646,0.94,1.024,1.6,1.024
		c1.192,0,1.894-0.969,1.894-2.287c0-1.319-0.701-2.287-1.894-2.287c-0.659,0-1.276,0.379-1.6,1.024V175.763z M258.188,173.476
		c0-0.771-0.575-1.249-1.487-1.249c-0.688,0-1.249,0.211-1.769,0.548v-0.997c0.422-0.294,1.165-0.519,1.937-0.519
		c1.474,0,2.343,0.813,2.343,2.133v4.223h-1.023v-0.463c-0.238,0.253-0.884,0.576-1.614,0.576c-1.276,0-2.314-0.759-2.314-1.993
		c0-1.164,1.038-1.95,2.37-1.95c0.646,0,1.291,0.267,1.559,0.505V173.476z M258.188,175.426c-0.169-0.463-0.786-0.771-1.445-0.771
		c-0.758,0-1.487,0.337-1.487,1.08c0,0.758,0.729,1.108,1.487,1.108c0.659,0,1.276-0.309,1.445-0.771V175.426z M260.957,171.385
		h1.053v0.786c0.364-0.491,1.037-0.912,1.838-0.912c1.416,0,2.188,0.912,2.188,2.272v4.083h-1.065V173.7
		c0-0.87-0.436-1.474-1.376-1.474c-0.729,0-1.36,0.491-1.584,1.165v4.223h-1.053V171.385z M268.36,180l0.939-2.343l-2.428-6.272
		h1.137l1.839,4.911l1.81-4.911h1.094L269.398,180H268.36z"/>
	<path fill="#00B388" d="M185.882,108c4.039,0,7.269,0.994,9.692,2.609v9.692c-2.733-2.113-5.715-3.106-8.884-3.106
		c-6.337,0-10.375,3.914-10.375,10.5c0,6.524,4.038,10.438,10.375,10.438c3.169,0,6.151-0.932,8.884-3.044v9.692
		c-2.423,1.614-5.653,2.609-9.692,2.609c-11.618,0-19.57-7.828-19.57-19.695C166.312,115.828,174.265,108,185.882,108z
		 M200.547,108.621h14.414c11.99,0,19.26,7.455,19.26,19.073s-7.27,19.073-19.26,19.073h-14.414V108.621z M214.463,138.132
		c6.337,0,9.878-4.038,9.878-10.438c0-6.461-3.541-10.5-9.878-10.5h-4.1v20.937H214.463z M237.007,135.088
		c3.293,2.237,7.952,3.977,12.239,3.977c3.169,0,5.902-0.684,5.902-3.045c0-1.864-1.181-2.485-3.23-3.231l-5.778-1.677
		c-6.398-1.864-9.94-5.032-9.94-11.37c0-7.579,6.399-11.742,14.414-11.742c5.156,0,8.822,1.118,11.99,2.858v9.195
		c-3.417-2.361-7.206-3.79-11.556-3.79c-2.858,0-5.032,0.808-5.032,2.734c0,1.74,1.181,2.423,3.169,3.044l5.777,1.739
		c6.958,2.175,10.127,5.84,10.127,11.681c0,8.263-7.021,11.929-15.594,11.929c-5.095,0-9.692-1.429-12.488-3.106V135.088z"/>
</g>
</svg>
